<?xml version="1.0" standalone="no"?>
<!DOCTYPE svg PUBLIC "-//W3C//DTD SVG 20010904//EN"
 "http://www.w3.org/TR/2001/REC-SVG-20010904/DTD/svg10.dtd">
<svg version="1.0" xmlns="http://www.w3.org/2000/svg"
 width="1832.000000pt" height="1832.000000pt" viewBox="0 0 1832.000000 1832.000000"
 preserveAspectRatio="xMidYMid meet">
<metadata>
Created by potrace 1.11, written by Peter Selinger 2001-2013
</metadata>
<g transform="translate(0.000000,1832.000000) scale(0.100000,-0.100000)"
fill="#000000" stroke="none">
<path d="M3230 12389 c-618 -275 -1249 -632 -1715 -969 -827 -600 -1411 -1324
-1506 -1864 -6 -39 -9 -110 -6 -165 9 -182 78 -331 223 -481 249 -258 653
-440 1241 -560 269 -54 433 -125 559 -243 264 -246 198 -634 -197 -1157 -188
-249 -544 -618 -844 -875 -235 -202 -232 -199 -200 -180 52 31 328 231 471
341 758 583 1154 1091 1180 1509 19 295 -159 547 -511 722 -125 63 -211 94
-395 143 -729 195 -1100 472 -1161 868 -40 264 101 604 408 981 123 151 468
491 673 664 483 406 1137 860 1788 1241 72 43 132 80 132 82 0 6 8 9 -140 -57z"/>
<path d="M4711 10264 c-192 -52 -320 -180 -352 -356 -23 -126 27 -277 121
-361 63 -57 192 -123 345 -177 149 -53 288 -119 338 -160 20 -17 49 -53 65
-78 25 -43 27 -56 27 -147 0 -89 -3 -106 -27 -151 -46 -87 -122 -143 -243
-181 -48 -14 -92 -18 -215 -18 -161 1 -260 16 -377 56 -31 10 -58 19 -60 19
-1 0 -3 -27 -3 -60 0 -57 2 -61 28 -71 115 -45 429 -72 582 -50 279 41 450
214 450 456 0 179 -78 291 -268 388 -59 30 -161 74 -227 97 -165 58 -306 132
-350 182 -49 58 -68 124 -63 217 9 157 102 254 285 297 113 27 302 6 463 -50
l71 -25 19 42 c11 23 20 47 20 54 0 15 -138 61 -238 78 -102 19 -321 18 -391
-1z"/>
<path d="M16467 10263 c-8 -14 -665 -1687 -669 -1703 -2 -13 13 -15 96 -15
l98 0 106 273 106 272 343 -2 344 -3 103 -263 c57 -145 108 -268 113 -273 5
-5 51 -9 104 -7 77 2 93 6 91 18 -2 8 -152 396 -335 863 l-331 847 -82 0 c-46
0 -85 -3 -87 -7z m108 -308 c9 -33 68 -197 131 -364 63 -167 114 -308 114
-313 0 -4 -121 -8 -270 -8 -148 0 -270 2 -270 5 0 2 49 136 109 297 60 161
120 330 133 375 12 45 26 79 29 75 4 -4 14 -34 24 -67z"/>
<path d="M6092 9403 l3 -858 468 -3 467 -2 0 60 0 60 -407 2 -408 3 -3 798 -2
797 -60 0 -60 0 2 -857z"/>
<path d="M7665 10248 c-3 -7 -4 -393 -3 -858 l3 -845 460 -3 c253 -1 465 0
470 2 6 2 8 28 7 60 l-4 56 -404 0 -404 0 0 365 0 365 385 0 385 0 0 55 0 55
-385 0 -385 0 0 325 0 325 405 0 405 0 0 55 0 55 -465 0 c-363 0 -467 -3 -470
-12z"/>
<path d="M9312 9638 c4 -614 4 -624 27 -698 63 -207 197 -340 401 -396 91 -25
329 -25 420 0 159 44 296 148 359 275 71 139 71 144 71 828 l0 613 -60 0 -60
0 0 -607 c0 -501 -3 -619 -15 -671 -44 -184 -179 -309 -370 -343 -97 -17 -263
-6 -343 21 -126 44 -235 154 -277 279 -29 89 -35 214 -35 769 l0 552 -61 0
-60 0 3 -622z"/>
<path d="M11170 10205 l0 -55 278 -2 277 -3 3 -803 2 -803 58 3 57 3 3 803 2
802 280 0 280 0 0 55 0 55 -620 0 -620 0 0 -55z"/>
<path d="M13000 9400 l0 -860 60 0 60 0 2 423 3 422 497 3 498 2 2 -422 3
-423 58 -3 57 -3 0 861 0 860 -60 0 -60 0 0 -380 0 -380 -500 0 -500 0 0 380
0 380 -60 0 -60 0 0 -860z"/>
<path d="M17890 9400 l0 -861 98 3 97 3 3 858 2 857 -100 0 -100 0 0 -860z"/>
<path d="M2581 9805 c-43 -165 -261 -1048 -259 -1051 2 -1 41 51 88 117 46 65
87 119 90 119 3 0 103 -271 222 -602 l216 -603 -192 -5 c-213 -6 -211 -4 -62
-64 83 -33 98 -36 191 -36 l101 0 188 -527 c104 -291 198 -552 209 -580 l20
-53 229 0 c215 0 230 1 223 18 -57 145 -425 1125 -425 1132 0 6 80 10 205 10
l205 0 85 42 c47 23 85 46 85 50 0 5 -141 8 -313 8 l-312 0 -384 1018 c-212
559 -388 1024 -392 1032 -5 10 -10 2 -18 -25z"/>
<path d="M4147 7742 c-37 -21 -73 -44 -79 -50 -9 -9 1652 -12 7045 -12 l7056
0 70 43 c39 23 71 45 71 50 0 4 -3171 7 -7047 7 l-7048 0 -68 -38z"/>
</g>
</svg>
