<?xml version="1.0" standalone="no"?>
<!DOCTYPE svg PUBLIC "-//W3C//DTD SVG 20010904//EN"
 "http://www.w3.org/TR/2001/REC-SVG-20010904/DTD/svg10.dtd">
<svg version="1.0" xmlns="http://www.w3.org/2000/svg"
 width="1132.000000pt" height="1132.000000pt" viewBox="0 0 1132.000000 1132.000000"
 preserveAspectRatio="xMidYMid meet">
<metadata>
Created by potrace 1.11, written by Peter Selinger 2001-2013
</metadata>
<g transform="translate(0.000000,1132.000000) scale(0.100000,-0.100000)"
fill="#000000" stroke="none">
<path d="M2870 8479 c0 -5 5 -7 10 -4 6 3 10 8 10 11 0 2 -4 4 -10 4 -5 0 -10
-5 -10 -11z"/>
<path d="M2805 8455 c-27 -12 -75 -33 -105 -48 -30 -14 -77 -35 -105 -47 -108
-48 -445 -221 -560 -287 -22 -13 -48 -26 -57 -29 -10 -4 -18 -10 -18 -15 0 -5
-9 -9 -19 -9 -11 0 -22 -4 -25 -9 -5 -8 -154 -99 -181 -110 -5 -2 -14 -8 -20
-13 -5 -5 -78 -53 -160 -107 -126 -81 -291 -197 -355 -248 -8 -6 -53 -42 -100
-79 -359 -287 -665 -610 -855 -904 -45 -71 -157 -274 -162 -295 -1 -5 -16 -47
-32 -91 -38 -105 -45 -148 -45 -264 0 -115 8 -157 42 -235 138 -316 566 -567
1177 -689 17 -4 41 -9 55 -11 14 -3 40 -8 59 -11 64 -11 186 -56 275 -103 141
-73 227 -172 261 -300 12 -45 12 -170 1 -220 -51 -225 -210 -490 -471 -787
-81 -91 -340 -351 -444 -444 -46 -41 -89 -80 -95 -87 -7 -6 -42 -35 -77 -64
-102 -84 -136 -120 -64 -69 33 23 78 54 100 69 22 14 49 34 59 44 11 9 23 17
27 17 4 0 14 6 21 13 7 7 63 51 123 97 61 46 124 95 141 109 17 14 46 38 65
53 20 15 47 37 61 50 14 13 56 50 94 83 158 138 366 360 459 490 11 16 25 33
31 39 5 6 13 18 17 26 4 8 18 33 32 55 42 68 119 233 124 268 0 4 1 8 2 10 2
8 8 37 15 72 53 301 -127 562 -504 724 -76 34 -163 63 -227 78 -25 5 -30 7
-85 23 -25 7 -49 14 -55 15 -79 17 -293 98 -406 154 -284 141 -442 309 -493
526 -10 39 -15 220 -6 220 1 0 3 12 5 27 2 16 6 37 10 47 3 11 7 28 9 38 23
114 178 381 315 543 12 14 38 45 59 70 42 51 321 332 397 401 49 44 267 226
333 278 230 180 420 317 692 498 118 79 220 147 226 152 6 5 26 17 45 26 19
10 36 21 39 25 3 4 19 15 35 24 17 9 44 25 60 36 17 11 41 25 55 32 14 7 27
15 30 18 3 3 55 35 115 70 126 73 120 69 114 74 -2 2 -26 -6 -54 -19z"/>
<path d="M2175 6013 c-31 -126 -58 -235 -60 -243 -2 -8 -19 -78 -39 -155 -20
-77 -38 -152 -41 -167 -2 -15 -9 -36 -14 -46 -6 -11 -8 -22 -5 -25 3 -3 1 -14
-5 -25 -19 -36 2 -32 27 6 14 20 28 39 31 42 3 3 24 31 45 63 22 32 42 54 46
50 4 -4 12 -24 19 -43 7 -19 17 -44 22 -55 4 -11 15 -40 23 -65 29 -89 67
-195 76 -215 5 -11 19 -49 30 -85 12 -36 26 -74 32 -85 5 -12 10 -27 12 -35 2
-8 8 -26 13 -40 6 -14 26 -70 46 -125 19 -55 51 -144 70 -197 l36 -98 -166 -2
-165 -3 79 -35 c69 -30 90 -35 180 -38 l101 -4 32 -91 c18 -51 45 -126 60
-167 16 -41 54 -147 85 -235 32 -88 75 -209 97 -270 22 -60 50 -139 62 -175
l22 -65 184 -2 c102 -1 190 0 197 2 12 4 -5 67 -40 147 -8 18 -20 49 -27 68
-7 19 -16 44 -20 55 -4 11 -18 47 -30 80 -12 33 -26 69 -30 80 -5 11 -50 130
-100 265 -50 135 -96 253 -101 262 -25 47 -21 49 170 48 l180 -1 78 40 78 41
-277 0 c-153 0 -278 1 -278 3 0 3 -14 42 -139 372 -56 149 -106 279 -110 290
-5 11 -18 45 -29 75 -11 30 -28 75 -37 100 -10 25 -42 110 -71 190 -30 80 -58
154 -63 165 -5 11 -18 45 -29 75 -21 57 -48 128 -128 335 -25 66 -48 130 -51
143 -3 12 -9 22 -13 22 -4 0 -33 -102 -65 -227z"/>
<path d="M3892 6112 c-37 -8 -73 -14 -79 -14 -7 -1 -13 -5 -13 -10 0 -4 -8 -8
-19 -8 -27 0 -106 -64 -139 -113 -76 -111 -69 -297 14 -401 16 -20 32 -36 36
-36 4 0 17 -8 28 -17 11 -10 24 -18 28 -19 4 0 27 -6 52 -13 25 -8 97 -24 160
-37 63 -14 126 -27 140 -30 39 -8 90 -44 111 -78 23 -37 25 -103 5 -151 -42
-100 -246 -141 -424 -84 -51 17 -129 62 -144 84 -4 6 -19 -3 -35 -23 -15 -18
-40 -48 -55 -65 l-27 -32 27 -22 c24 -19 147 -87 161 -89 4 0 24 -5 46 -12
140 -39 345 -27 456 29 115 57 180 171 174 306 -9 180 -102 266 -340 314 -154
31 -193 43 -236 72 -93 62 -83 208 18 264 106 58 248 51 378 -21 37 -20 68
-36 69 -34 61 86 88 129 85 131 -37 25 -94 60 -103 61 -6 1 -20 7 -31 13 -35
19 -155 44 -216 46 -33 1 -90 -4 -127 -11z"/>
<path d="M4622 6110 c-4 -3 -8 -269 -7 -592 l0 -588 381 0 380 0 -1 78 -1 77
-259 2 c-143 1 -276 2 -296 2 l-36 1 -1 506 c0 278 -3 508 -6 511 -8 8 -144
11 -154 3z"/>
<path d="M5574 6111 c-2 -2 -4 -269 -4 -593 l0 -588 381 2 382 3 -1 53 c0 28
-1 63 -1 77 l-1 25 -257 -1 c-142 0 -276 0 -298 0 l-40 1 2 152 c1 84 2 163 2
175 1 21 2 21 246 21 135 0 248 2 252 6 8 8 8 130 0 143 -4 6 -96 10 -248 10
-161 0 -243 3 -247 10 -5 8 -8 312 -3 344 1 3 132 5 292 5 160 -1 293 3 296 7
4 7 6 74 4 132 -1 20 -8 20 -377 20 -207 0 -378 -2 -380 -4z"/>
<path d="M6559 6109 c-10 -6 -6 -851 4 -884 3 -11 10 -35 16 -53 28 -94 115
-187 205 -221 225 -84 472 -5 553 177 45 102 49 150 47 577 -1 220 -2 402 -3
405 -2 10 -161 5 -162 -5 0 -5 -1 -197 -3 -425 -2 -397 -3 -417 -22 -460 -45
-96 -125 -140 -245 -135 -78 4 -132 28 -172 77 -29 34 -63 130 -53 147 4 5 3
12 -1 14 -5 3 -7 83 -5 179 2 207 2 171 -1 296 -1 57 1 106 6 109 4 2 3 12 -1
21 -4 9 -7 54 -7 100 1 45 -1 82 -4 83 -23 4 -145 3 -152 -2z"/>
<path d="M7499 6100 c-1 -8 -1 -44 -1 -80 l-1 -64 167 0 c110 0 166 -3 166
-10 1 -6 1 -237 1 -513 l0 -503 83 0 83 0 1 498 c0 273 1 504 1 513 1 13 23
15 156 14 86 0 161 2 168 5 15 6 17 149 2 151 -5 1 -193 2 -418 3 -355 1 -407
-1 -408 -14z"/>
<path d="M8497 6106 c-2 -6 -3 -272 -3 -591 l1 -580 83 -3 c73 -2 82 -1 83 15
0 10 1 122 1 250 0 164 4 233 12 235 9 3 407 2 472 -1 21 -1 22 -3 22 -238 0
-131 1 -244 1 -250 1 -9 24 -13 80 -13 54 0 80 4 83 13 3 10 3 1152 -1 1167
-2 8 -149 5 -157 -3 -4 -4 -8 -121 -8 -259 l-1 -253 -251 -2 -252 -1 2 259 c0
142 -1 259 -4 260 -40 7 -160 3 -163 -5z"/>
<path d="M10401 6110 c-10 -8 -188 -481 -257 -685 -14 -38 -28 -79 -33 -90 -5
-11 -18 -45 -29 -75 -46 -123 -95 -257 -108 -292 l-13 -38 88 0 89 0 12 30 c7
16 12 31 12 34 1 3 15 47 33 98 l32 93 240 3 240 2 44 -130 44 -130 88 0 89 0
-7 28 c-3 15 -12 41 -20 57 -7 17 -18 46 -25 65 -7 19 -16 44 -20 55 -4 11
-17 45 -28 75 -12 30 -42 111 -67 180 -26 69 -48 130 -49 135 -2 6 -6 17 -9
25 -3 8 -22 60 -42 115 -20 55 -41 109 -46 120 -6 12 -11 27 -13 35 -2 8 -6
22 -9 30 -16 38 -60 160 -75 208 -11 36 -22 52 -34 53 -60 4 -121 3 -127 -1z
m93 -302 c11 -35 22 -67 24 -72 8 -16 131 -380 129 -383 -3 -2 -230 -5 -315
-4 l-53 1 16 30 c8 16 15 31 15 32 -2 4 61 195 77 238 4 8 7 17 8 20 0 4 35
103 51 150 1 3 5 15 9 28 4 12 10 22 14 22 3 0 15 -28 25 -62z"/>
<path d="M11158 6115 c0 0 -2 -267 -3 -592 l-1 -593 83 0 83 0 -2 592 -3 593
-77 0 c-43 0 -79 0 -80 0z"/>
<path d="M3563 4432 c-35 -20 -63 -39 -63 -42 0 -3 30 -3 67 0 53 4 81 12 126
38 31 19 57 36 57 38 0 2 -28 4 -62 4 -54 -1 -72 -6 -125 -38z"/>
</g>
</svg>
